<svg id="visual" viewBox="0 0 1920 700" width="1920" height="700" xmlns="http://www.w3.org/2000/svg" xmlns:xlink="http://www.w3.org/1999/xlink" version="1.1"><rect x="0" y="0" width="1920" height="700" fill="#FFFFFF"></rect><path d="M983 0L980.7 29.2C978.3 58.3 973.7 116.7 1017.3 175C1061 233.3 1153 291.7 1136 350C1119 408.3 993 466.7 915.7 525C838.3 583.3 809.7 641.7 795.3 670.8L781 700L0 700L0 670.8C0 641.7 0 583.3 0 525C0 466.7 0 408.3 0 350C0 291.7 0 233.3 0 175C0 116.7 0 58.3 0 29.2L0 0Z" fill="#0765c3" stroke-linecap="round" stroke-linejoin="miter"></path></svg>