<svg id="visual" viewBox="0 0 1920 700" width="1920" height="700" xmlns="http://www.w3.org/2000/svg" xmlns:xlink="http://www.w3.org/1999/xlink" version="1.1"><rect x="0" y="0" width="1920" height="700" fill="#FFFFFF"></rect><path d="M772 0L788.3 19.5C804.7 39 837.3 78 837.5 116.8C837.7 155.7 805.3 194.3 799.3 233.2C793.3 272 813.7 311 829.2 350C844.7 389 855.3 428 848.2 466.8C841 505.7 816 544.3 762 583.2C708 622 625 661 583.5 680.5L542 700L0 700L0 680.5C0 661 0 622 0 583.2C0 544.3 0 505.7 0 466.8C0 428 0 389 0 350C0 311 0 272 0 233.2C0 194.3 0 155.7 0 116.8C0 78 0 39 0 19.5L0 0Z" fill="#ffc71e" stroke-linecap="round" stroke-linejoin="miter"></path></svg>