<svg id="visual" viewBox="0 0 1920 700" width="1920" height="700" xmlns="http://www.w3.org/2000/svg" xmlns:xlink="http://www.w3.org/1999/xlink" version="1.1"><rect x="0" y="0" width="1920" height="700" fill="#4FACF7"></rect><defs><linearGradient id="grad1_0" x1="63.5%" y1="0%" x2="100%" y2="100%"><stop offset="-4.857142857142854%" stop-color="#4facf7" stop-opacity="1"></stop><stop offset="104.85714285714286%" stop-color="#4facf7" stop-opacity="1"></stop></linearGradient></defs><defs><linearGradient id="grad2_0" x1="0%" y1="0%" x2="36.5%" y2="100%"><stop offset="-4.857142857142854%" stop-color="#4facf7" stop-opacity="1"></stop><stop offset="104.85714285714286%" stop-color="#4facf7" stop-opacity="1"></stop></linearGradient></defs><g transform="translate(1920, 0)"><path d="M0 630C-76.9 610.4 -153.8 590.8 -233.8 564.5C-313.8 538.2 -396.9 505.1 -445.5 445.5C-494 385.8 -508.1 299.5 -533.1 220.8C-558.1 142.1 -594 71.1 -630 0L0 0Z" fill="#ffc71e"></path></g><g transform="translate(0, 700)"><path d="M0 -630C87.9 -626.9 175.8 -623.8 241.1 -582C306.4 -540.3 349.2 -460 396 -396C442.7 -331.9 493.4 -284.1 533.1 -220.8C572.7 -157.5 601.4 -78.8 630 0L0 0Z" fill="#ffc71e"></path></g></svg>