<svg id="visual" viewBox="0 0 1920 700" width="1920" height="700" xmlns="http://www.w3.org/2000/svg" xmlns:xlink="http://www.w3.org/1999/xlink" version="1.1"><rect x="0" y="0" width="1920" height="700" fill="#715DF2"></rect><path d="M882 0L887 29.2C892 58.3 902 116.7 846.2 175C790.3 233.3 668.7 291.7 616.2 350C563.7 408.3 580.3 466.7 635.2 525C690 583.3 783 641.7 829.5 670.8L876 700L0 700L0 670.8C0 641.7 0 583.3 0 525C0 466.7 0 408.3 0 350C0 291.7 0 233.3 0 175C0 116.7 0 58.3 0 29.2L0 0Z" fill="#000000" stroke-linecap="round" stroke-linejoin="miter"></path></svg>