<?xml version="1.0" standalone="no"?>
<!DOCTYPE svg PUBLIC "-//W3C//DTD SVG 20010904//EN"
 "http://www.w3.org/TR/2001/REC-SVG-20010904/DTD/svg10.dtd">
<svg version="1.0" xmlns="http://www.w3.org/2000/svg"
 width="300.000000pt" height="220.000000pt" viewBox="0 0 300.000000 200.000000"
 preserveAspectRatio="xMidYMid meet">

<g transform="translate(-15.000000,300.000000) scale(0.100000,-0.100000)"
fill="#ffffff" stroke="none">
<path d="M1159 2821 l-486 -136 490 -135 c270 -74 495 -134 501 -133 13 3 803
221 829 229 15 5 17 -3 17 -65 0 -61 -3 -73 -25 -95 -23 -23 -25 -32 -25 -116
l0 -90 65 0 c48 0 65 -4 65 -13 0 -21 -54 -92 -87 -114 -44 -30 -61 -34 -169
-38 -115 -4 -174 -17 -259 -55 -203 -92 -353 -309 -356 -517 -2 -149 128 -303
310 -365 123 -42 320 -24 450 41 79 40 112 70 145 131 27 50 28 56 21 144 -3
50 -13 136 -21 191 -18 131 -18 209 2 303 12 56 14 101 9 167 -3 50 -10 137
-14 195 -8 114 -14 135 -42 151 -16 8 -19 22 -19 88 l0 79 42 7 c39 7 -1 20
-437 141 -264 74 -489 136 -500 138 -11 2 -239 -57 -506 -133z m1166 -930 c76
-36 131 -89 164 -160 35 -75 37 -192 4 -263 -30 -66 -96 -133 -162 -165 -47
-24 -69 -28 -136 -28 -67 0 -89 4 -136 28 -66 32 -132 99 -162 165 -31 67 -30
188 1 257 38 83 125 159 212 186 14 4 54 8 90 8 52 1 77 -5 125 -28z" fill="#0765c3"/>
<path d="M2127 1842 c-10 -2 -29 -9 -43 -17 l-25 -13 24 -6 c36 -9 60 -51 53
-92 -12 -63 -86 -85 -132 -39 -31 31 -39 16 -31 -54 7 -62 37 -112 89 -147 36
-25 50 -29 114 -29 64 0 77 3 116 30 81 56 110 161 69 251 -41 89 -137 137
-234 116z" fill="#fffff" />
<path d="M1030 2352 l0 -147 77 -2 c135 -4 292 -68 395 -161 45 -41 121 -144
141 -191 l14 -32 39 68 c106 184 315 311 518 316 l76 2 0 148 c0 137 -1 148
-17 143 -111 -35 -594 -166 -612 -166 -18 0 -560 144 -618 165 -10 3 -13 -29
-13 -143z" fill="#017ecf"/>
<path d="M690 2268 c-21 -57 -24 -195 -6 -280 20 -94 20 -172 2 -303 -8 -55
-18 -141 -21 -191 -7 -84 -6 -93 18 -141 14 -28 40 -63 58 -77 106 -89 321
-143 469 -116 209 37 384 213 381 383 -3 209 -157 431 -363 521 -80 35 -141
47 -254 51 -69 2 -114 9 -138 20 -43 21 -92 75 -116 128 l-17 39 -13 -34z
m555 -377 c72 -34 136 -98 167 -166 31 -69 32 -190 1 -257 -30 -66 -96 -133
-162 -165 -47 -24 -69 -28 -136 -28 -67 0 -89 4 -136 28 -66 32 -132 99 -162
165 -33 71 -31 189 4 262 31 65 84 122 142 152 61 31 84 36 157 37 52 1 77 -5
125 -28z" fill="#0765c3"/> 
<path d="M1048 1806 c-157 -69 -159 -289 -3 -368 111 -57 260 13 284 136 7 32
7 65 2 89 -9 39 -21 60 -21 38 0 -21 -48 -61 -74 -61 -39 0 -77 39 -78 79 -1
27 6 40 31 62 27 22 29 28 16 33 -27 10 -128 5 -157 -8z" fill="#fffff"/>
<path d="M1601 1240 l-54 -47 54 -101 53 -100 53 96 c29 52 53 98 53 102 0 6
-45 49 -85 82 -19 15 -23 14 -74 -32z" fill="#fffff"/>
</g>
</svg>
