<svg xmlns="http://www.w3.org/2000/svg" xmlns:xlink="http://www.w3.org/1999/xlink" version="1.1" width="256" height="256" viewBox="0 0 256 256" xml:space="preserve">
<desc>Created with Fabric.js 1.7.22</desc>
<defs>
</defs>
<g transform="translate(128 128) scale(0.72 0.72)" style="">
	<g style="stroke: none; stroke-width: 0; stroke-dasharray: none; stroke-linecap: butt; stroke-linejoin: miter; stroke-miterlimit: 10; fill: none; fill-rule: nonzero; opacity: 1;" transform="translate(-175.05 -175.05000000000004) scale(3.89 3.89)" >
	<circle cx="45" cy="45" r="44" style="stroke: none; stroke-width: 1; stroke-dasharray: none; stroke-linecap: butt; stroke-linejoin: miter; stroke-miterlimit: 10; fill: rgb(255,216,118); fill-rule: nonzero; opacity: 1;" transform="  matrix(1 0 0 1 0 0) "/>
	<path d="M 47.585 67.941 c 2.894 0.654 7.659 -1.027 11.383 -3.776 l 15.15 -10.608 c 1.637 -1.146 2.038 -3.422 0.892 -5.059 l -0.415 -0.593 c -1.146 -1.637 -3.422 -2.038 -5.059 -0.892 l 2.458 -1.721 c 1.637 -1.146 2.038 -3.422 0.892 -5.059 L 72.47 39.64 c -1.146 -1.637 -3.422 -2.038 -5.059 -0.892 l -0.129 0.09 c 1.637 -1.146 2.038 -3.422 0.892 -5.059 l -0.415 -0.593 c -1.146 -1.637 -3.422 -2.038 -5.059 -0.892 l -0.354 0.248 c 1.637 -1.146 2.038 -3.422 0.892 -5.059 l -0.415 -0.593 c -1.146 -1.637 -3.422 -2.038 -5.059 -0.892 l -10.802 7.594 C 39.483 20.117 34.79 18.84 30.555 23.557 c 4.641 7.35 6.927 20.2 2.529 23.675 L 47.585 67.941 z" style="stroke: none; stroke-width: 1; stroke-dasharray: none; stroke-linecap: butt; stroke-linejoin: miter; stroke-miterlimit: 10; fill: rgb(245,197,162); fill-rule: nonzero; opacity: 1;" transform=" matrix(1 0 0 1 0 0) " stroke-linecap="round" />
	<path d="M 48.305 71.64 l -8.364 5.856 c -0.693 0.485 -1.649 0.317 -2.134 -0.376 L 21.199 53.402 c -0.485 -0.693 -0.317 -1.649 0.376 -2.134 l 8.364 -5.856 c 0.693 -0.485 1.649 -0.317 2.134 0.376 l 16.608 23.719 C 49.166 70.199 48.998 71.155 48.305 71.64 z" style="stroke: none; stroke-width: 1; stroke-dasharray: none; stroke-linecap: butt; stroke-linejoin: miter; stroke-miterlimit: 10; fill: rgb(150,221,255); fill-rule: nonzero; opacity: 1;" transform=" matrix(1 0 0 1 0 0) " stroke-linecap="round" />
	<path d="M 6.056 65.476 c 4.387 8.325 11.356 15.078 19.851 19.176 l 11.523 -8.069 L 21.89 54.389 L 6.056 65.476 z" style="stroke: none; stroke-width: 1; stroke-dasharray: none; stroke-linecap: butt; stroke-linejoin: miter; stroke-miterlimit: 10; fill: rgb(122,197,226); fill-rule: nonzero; opacity: 1;" transform=" matrix(1 0 0 1 0 0) " stroke-linecap="round" />
	<path d="M 57.406 37.001 c -0.315 0 -0.626 -0.148 -0.82 -0.426 c -0.316 -0.453 -0.207 -1.076 0.246 -1.393 l 4.94 -3.459 c 0.45 -0.316 1.076 -0.207 1.393 0.246 c 0.316 0.453 0.207 1.076 -0.246 1.393 l -4.94 3.459 C 57.805 36.942 57.604 37.001 57.406 37.001 z" style="stroke: none; stroke-width: 1; stroke-dasharray: none; stroke-linecap: butt; stroke-linejoin: miter; stroke-miterlimit: 10; fill: rgb(0,0,0); fill-rule: nonzero; opacity: 1;" transform=" matrix(1 0 0 1 0 0) " stroke-linecap="round" />
	<path d="M 61.988 43.545 c -0.315 0 -0.626 -0.148 -0.82 -0.426 c -0.316 -0.453 -0.207 -1.076 0.246 -1.393 l 5.295 -3.708 c 0.45 -0.316 1.076 -0.206 1.393 0.246 c 0.316 0.453 0.207 1.076 -0.246 1.393 l -5.295 3.708 C 62.387 43.487 62.187 43.545 61.988 43.545 z" style="stroke: none; stroke-width: 1; stroke-dasharray: none; stroke-linecap: butt; stroke-linejoin: miter; stroke-miterlimit: 10; fill: rgb(0,0,0); fill-rule: nonzero; opacity: 1;" transform=" matrix(1 0 0 1 0 0) " stroke-linecap="round" />
	<path d="M 66.57 50.09 c -0.315 0 -0.626 -0.148 -0.82 -0.427 c -0.316 -0.452 -0.207 -1.075 0.246 -1.393 l 2.967 -2.077 c 0.451 -0.316 1.075 -0.207 1.393 0.246 c 0.316 0.452 0.207 1.075 -0.246 1.393 l -2.967 2.077 C 66.969 50.031 66.769 50.09 66.57 50.09 z" style="stroke: none; stroke-width: 1; stroke-dasharray: none; stroke-linecap: butt; stroke-linejoin: miter; stroke-miterlimit: 10; fill: rgb(0,0,0); fill-rule: nonzero; opacity: 1;" transform=" matrix(1 0 0 1 0 0) " stroke-linecap="round" />
	<path d="M 48.93 69.077 c -0.561 0 -1.086 -0.052 -1.564 -0.16 c -0.243 -0.055 -0.457 -0.198 -0.6 -0.402 l -14.5 -20.71 c -0.304 -0.434 -0.216 -1.029 0.199 -1.357 c 3.833 -3.029 1.662 -15.361 -2.755 -22.356 c -0.239 -0.378 -0.197 -0.869 0.102 -1.202 c 1.891 -2.106 3.804 -3.019 5.85 -2.787 c 3.468 0.392 7.177 4.224 11.63 12.035 l 9.898 -6.958 c 2.094 -1.465 4.989 -0.956 6.453 1.136 l 0.415 0.593 c 0.789 1.127 1.006 2.487 0.71 3.731 c 0 0 0 0 0.001 0 c 0.271 0 0.546 0.023 0.819 0.072 c 1.222 0.215 2.284 0.891 2.991 1.9 l 0.415 0.595 c 0.707 1.009 0.979 2.238 0.764 3.459 c -0.026 0.146 -0.059 0.289 -0.097 0.43 c 1.402 0.051 2.765 0.735 3.63 1.97 l 0.415 0.594 c 1.315 1.878 1.038 4.404 -0.547 5.961 c 0.883 0.309 1.68 0.887 2.256 1.71 l 0.416 0.593 c 0.707 1.012 0.978 2.24 0.763 3.462 c -0.216 1.221 -0.891 2.283 -1.901 2.99 L 59.542 64.984 C 56.101 67.524 51.986 69.077 48.93 69.077 z M 48.169 67.032 c 2.575 0.355 6.771 -1.137 10.206 -3.672 l 15.17 -10.623 c 0.572 -0.4 0.955 -1.004 1.078 -1.699 s -0.03 -1.394 -0.432 -1.967 l -0.416 -0.593 c -0.831 -1.188 -2.473 -1.478 -3.66 -0.65 l -0.006 0.004 c -0.45 0.316 -1.076 0.208 -1.393 -0.246 c -0.316 -0.452 -0.207 -1.075 0.246 -1.393 l 2.458 -1.721 c 1.188 -0.833 1.478 -2.477 0.646 -3.666 l -0.415 -0.594 c -0.834 -1.188 -2.478 -1.478 -3.667 -0.646 l -0.128 0.09 c 0 0 -0.001 0 -0.001 0 c -0.451 0.316 -1.074 0.207 -1.393 -0.246 c -0.316 -0.452 -0.207 -1.076 0.245 -1.393 l 0.001 0 c 0.572 -0.401 0.955 -1.004 1.078 -1.7 c 0.122 -0.695 -0.031 -1.393 -0.433 -1.966 l -0.415 -0.595 c -0.4 -0.572 -1.004 -0.955 -1.7 -1.077 c -0.695 -0.121 -1.393 0.031 -1.966 0.432 l -0.354 0.248 c -0.452 0.316 -1.076 0.207 -1.393 -0.246 c -0.316 -0.452 -0.207 -1.076 0.246 -1.393 l 0 0 l 0.003 -0.002 c 1.187 -0.833 1.476 -2.476 0.644 -3.665 l -0.415 -0.592 c -0.832 -1.189 -2.476 -1.479 -3.667 -0.647 l -10.801 7.592 c -0.232 0.164 -0.522 0.22 -0.799 0.157 c -0.276 -0.063 -0.513 -0.241 -0.65 -0.489 c -4.297 -7.742 -7.781 -11.663 -10.651 -11.987 c -1.206 -0.137 -2.377 0.375 -3.628 1.603 c 4.101 6.988 6.691 19.062 2.589 23.67 L 48.169 67.032 z" style="stroke: none; stroke-width: 1; stroke-dasharray: none; stroke-linecap: butt; stroke-linejoin: miter; stroke-miterlimit: 10; fill: rgb(0,0,0); fill-rule: nonzero; opacity: 1;" transform=" matrix(1 0 0 1 0 0) " stroke-linecap="round" />
	<path d="M 39.066 78.773 c -0.799 0 -1.586 -0.377 -2.079 -1.08 L 20.379 53.975 c -0.801 -1.144 -0.521 -2.726 0.623 -3.526 l 8.363 -5.856 c 1.145 -0.801 2.727 -0.522 3.527 0.623 L 49.5 68.933 c 0.801 1.145 0.522 2.727 -0.622 3.527 l -8.363 5.856 C 40.073 78.625 39.567 78.773 39.066 78.773 z M 30.817 46.134 c -0.106 0 -0.212 0.031 -0.305 0.097 l -8.363 5.856 c -0.117 0.081 -0.194 0.203 -0.219 0.344 c -0.024 0.14 0.007 0.28 0.088 0.397 l 16.608 23.719 c 0.082 0.116 0.204 0.194 0.344 0.219 c 0.14 0.027 0.281 -0.007 0.398 -0.088 l 8.364 -5.856 l 0 0 c 0.116 -0.081 0.193 -0.203 0.219 -0.344 c 0.024 -0.14 -0.007 -0.281 -0.089 -0.398 L 31.253 46.361 C 31.15 46.214 30.985 46.134 30.817 46.134 z" style="stroke: none; stroke-width: 1; stroke-dasharray: none; stroke-linecap: butt; stroke-linejoin: miter; stroke-miterlimit: 10; fill: rgb(0,0,0); fill-rule: nonzero; opacity: 1;" transform=" matrix(1 0 0 1 0 0) " stroke-linecap="round" />
	<path d="M 45 90 C 20.187 90 0 69.813 0 45 C 0 20.187 20.187 0 45 0 c 24.813 0 45 20.187 45 45 C 90 69.813 69.813 90 45 90 z M 45 2 C 21.29 2 2 21.29 2 45 c 0 23.71 19.29 43 43 43 c 23.71 0 43 -19.29 43 -43 C 88 21.29 68.71 2 45 2 z" style="stroke: none; stroke-width: 1; stroke-dasharray: none; stroke-linecap: butt; stroke-linejoin: miter; stroke-miterlimit: 10; fill: rgb(0,0,0); fill-rule: nonzero; opacity: 1;" transform=" matrix(1 0 0 1 0 0) " stroke-linecap="round" />
	<path d="M 25.907 85.652 c -0.148 0 -0.296 -0.033 -0.435 -0.1 c -8.618 -4.156 -15.828 -11.121 -20.301 -19.61 c -0.235 -0.445 -0.102 -0.996 0.311 -1.285 L 21.316 53.57 c 0.455 -0.316 1.076 -0.206 1.393 0.246 L 38.25 76.011 c 0.152 0.217 0.211 0.485 0.166 0.747 c -0.046 0.261 -0.194 0.493 -0.411 0.646 l -11.523 8.068 C 26.31 85.591 26.109 85.652 25.907 85.652 z M 7.359 65.785 c 4.204 7.591 10.716 13.841 18.458 17.709 l 10.221 -7.156 L 21.645 55.782 L 7.359 65.785 z" style="stroke: none; stroke-width: 1; stroke-dasharray: none; stroke-linecap: butt; stroke-linejoin: miter; stroke-miterlimit: 10; fill: rgb(0,0,0); fill-rule: nonzero; opacity: 1;" transform=" matrix(1 0 0 1 0 0) " stroke-linecap="round" />
</g>
</g>
</svg>